<?xml version="1.0" standalone="no"?>
<!DOCTYPE svg PUBLIC "-//W3C//DTD SVG 20010904//EN"
 "http://www.w3.org/TR/2001/REC-SVG-20010904/DTD/svg10.dtd">
<svg version="1.0" xmlns="http://www.w3.org/2000/svg"
 width="649.000000pt" height="453.000000pt" viewBox="0 0 649.000000 453.000000"
 preserveAspectRatio="xMidYMid meet">

<g transform="translate(0.000000,453.000000) scale(0.100000,-0.100000)"
fill="#000000" stroke="none">
<path d="M3098 2849 l-3 -1661 -40 32 c-22 17 -41 27 -43 21 -2 -6 -14 -8 -28
-5 -19 5 -24 2 -24 -14 0 -11 -6 -35 -14 -53 -7 -19 -21 -77 -31 -129 -12 -65
-31 -123 -60 -185 -43 -89 -95 -170 -95 -148 0 7 5 15 10 18 7 5 8 11 1 19 -6
7 -8 55 -5 118 3 68 1 109 -6 113 -5 3 -10 23 -10 45 0 31 -6 44 -33 67 -19
16 -42 44 -52 61 -11 17 -32 36 -47 43 -16 6 -34 19 -41 29 -11 16 -53 31 -87
31 -8 0 -37 6 -65 13 -144 38 -299 48 -345 21 -14 -8 -34 -14 -45 -15 -11 0
-33 -7 -50 -16 -21 -12 -56 -17 -120 -17 -74 0 -102 5 -160 28 -130 51 -179
60 -240 45 -30 -7 -69 -22 -86 -32 l-30 -18 21 -38 c14 -25 34 -43 56 -51 19
-7 34 -18 35 -24 0 -7 2 -23 5 -36 2 -13 0 -29 -5 -35 -5 -6 -11 -20 -13 -31
-3 -17 -6 -16 -18 10 -12 24 -22 31 -54 33 -21 2 -48 12 -60 23 -18 17 -21 18
-24 5 -2 -10 -14 -16 -28 -16 -21 0 -24 4 -19 21 6 18 3 20 -18 17 -13 -1 -32
3 -41 11 -16 13 -23 51 -8 51 4 0 12 11 18 24 10 22 9 25 -19 30 -54 11 -91 6
-142 -18 -57 -27 -153 -113 -197 -177 -17 -24 -28 -36 -24 -26 3 9 1 17 -4 17
-14 0 -12 -17 4 -43 8 -12 16 -31 18 -42 2 -11 15 -27 29 -37 28 -17 35 -40
46 -145 5 -50 7 -53 31 -52 15 0 21 3 15 6 -15 6 -17 43 -3 43 6 0 10 -4 10
-9 0 -12 55 -22 89 -15 23 5 31 13 36 35 5 20 13 29 26 29 10 0 18 -5 16 -12
-1 -6 15 -16 35 -21 21 -5 38 -13 38 -19 0 -5 -5 -6 -12 -2 -7 4 -8 3 -4 -4 4
-7 13 -12 21 -12 15 0 85 -63 85 -76 0 -5 9 -16 20 -24 11 -8 20 -20 20 -27 0
-7 7 -13 15 -13 7 0 18 -6 22 -13 11 -17 126 -64 256 -102 31 -10 57 -22 57
-27 0 -6 7 -7 16 -4 12 4 14 1 9 -14 -5 -16 -2 -20 14 -20 28 0 27 -18 -1 -22
-13 -2 -30 -19 -43 -42 -12 -21 -35 -46 -51 -54 -27 -14 -101 -23 -181 -22
-22 0 -37 -7 -47 -22 -14 -20 -14 -24 4 -53 23 -38 25 -82 7 -128 -8 -18 -17
-44 -21 -60 l-6 -27 606 2 607 3 12 60 c7 33 18 108 25 167 7 60 17 108 21
108 5 0 9 -4 9 -9 0 -8 28 -28 104 -75 17 -10 42 -26 56 -35 14 -9 45 -25 70
-36 25 -11 59 -29 75 -41 17 -12 54 -32 83 -44 50 -22 52 -24 52 -61 l0 -39
486 0 c459 0 486 1 480 18 -6 16 -5 16 8 0 14 -20 96 -26 96 -8 0 6 -4 10 -9
10 -8 0 -28 40 -98 191 -17 36 -33 81 -36 100 -5 41 -24 81 -44 92 -10 6 -12
19 -9 40 4 23 4 26 -3 12 -7 -17 -9 -15 -14 15 -15 93 -37 151 -78 205 -24 32
-48 65 -53 74 -5 9 -33 36 -62 61 -29 25 -53 51 -53 58 -1 7 -7 15 -15 18 -8
3 -36 33 -62 67 -27 34 -52 67 -57 72 -45 57 -127 231 -127 271 0 16 -7 56
-14 89 -8 33 -17 86 -21 118 -4 32 -19 80 -33 105 -21 39 -26 68 -34 177 -5
72 -15 165 -23 208 -13 68 -12 91 0 184 9 58 18 109 21 114 12 21 32 7 39 -27
7 -41 2 -52 -18 -36 -8 7 -17 9 -20 5 -9 -9 -7 -237 2 -293 l7 -45 8 58 c5 32
6 84 4 117 -3 40 -1 59 6 57 7 -2 13 -64 16 -165 3 -88 8 -164 12 -167 20 -20
30 269 15 420 -9 87 6 90 18 3 4 -26 12 -51 17 -54 7 -5 9 3 4 22 -10 44 -7
93 10 154 8 30 21 74 27 98 7 24 15 41 19 37 3 -3 14 20 24 51 14 45 31 72 77
118 33 33 71 66 86 73 17 9 6 -6 -31 -43 -32 -30 -58 -59 -58 -63 0 -4 -13
-20 -30 -36 -16 -16 -30 -33 -30 -37 0 -5 14 -2 30 7 17 9 30 20 30 24 0 10
29 46 78 98 17 18 33 38 33 43 1 6 2 15 3 21 0 7 11 15 24 20 27 10 31 -15 5
-30 -32 -18 2 -12 45 9 22 11 54 20 71 20 16 0 42 5 57 10 15 6 60 15 101 21
72 10 102 6 168 -21 11 -4 39 -13 63 -20 50 -16 57 -35 9 -27 -38 6 -63 -5
-53 -22 4 -6 11 -9 16 -6 9 6 27 -42 19 -49 -2 -2 -51 2 -109 10 -77 10 -113
11 -135 3 -16 -6 -52 -13 -80 -15 -27 -3 -70 -15 -95 -26 -52 -25 -125 -91
-146 -131 -14 -27 -14 -27 6 -15 11 7 20 18 20 23 0 12 36 43 94 81 33 21 51
25 127 27 48 0 90 -1 92 -3 2 -3 7 -26 10 -51 6 -46 6 -46 -33 -64 -21 -10
-46 -15 -54 -12 -19 7 -77 -11 -91 -28 -6 -7 -22 -15 -35 -17 -17 -2 -32 -16
-45 -40 -11 -22 -28 -38 -37 -38 -10 0 -18 -4 -18 -10 0 -5 -13 -25 -30 -43
-16 -19 -30 -39 -30 -45 0 -5 -6 -15 -13 -21 -19 -16 -20 -131 -1 -131 8 0 14
-7 14 -15 0 -20 9 -19 33 2 19 18 20 17 14 -9 -8 -30 0 -58 16 -58 12 0 77
-65 77 -78 0 -5 7 -15 15 -22 10 -9 15 -9 15 -1 0 15 27 14 32 -1 5 -14 195
-59 246 -58 23 0 32 -4 32 -15 0 -9 4 -14 8 -11 5 3 51 7 103 10 89 4 208 36
217 58 2 4 10 8 17 8 8 0 18 6 22 12 4 7 17 18 28 24 11 6 20 19 20 28 0 8 3
15 7 13 7 -2 41 40 44 53 0 3 4 13 8 23 5 10 3 23 -4 31 -8 11 -8 20 -1 35 6
11 11 42 11 68 0 27 4 53 9 59 13 14 23 122 11 129 -5 3 -10 14 -10 23 0 9 -7
28 -14 42 -8 14 -22 40 -32 59 -10 19 -30 41 -46 50 -15 9 -28 21 -28 27 0 16
-105 108 -132 115 -22 7 -22 7 5 8 15 1 27 -3 27 -8 0 -5 14 -14 31 -20 17 -6
45 -24 61 -40 17 -16 43 -35 59 -41 16 -7 29 -16 29 -21 0 -5 10 -13 21 -20
15 -7 19 -8 15 0 -4 7 -1 9 8 5 12 -5 24 -22 26 -39 0 -2 12 -17 27 -32 14
-16 40 -57 57 -93 28 -60 30 -73 31 -175 0 -97 -3 -119 -29 -187 -15 -42 -39
-87 -52 -99 -13 -12 -24 -27 -24 -32 0 -5 -10 -17 -22 -27 -13 -10 -20 -21
-17 -25 7 -6 99 96 99 109 0 4 11 22 25 40 14 18 25 38 25 45 0 14 65 81 79
81 16 0 37 -35 36 -60 -1 -14 -5 -57 -9 -95 -6 -57 -4 -79 10 -115 10 -25 21
-47 25 -50 4 -3 11 -18 14 -33 7 -25 4 -29 -24 -40 -42 -16 -43 -47 -1 -47 27
0 67 -15 80 -31 3 -3 29 -8 58 -11 29 -3 60 -12 70 -21 9 -8 28 -17 41 -19 25
-3 50 -32 39 -44 -4 -3 -25 -6 -48 -6 -22 0 -40 -3 -40 -9 0 -5 9 -9 19 -9 14
0 19 -6 18 -21 -1 -16 -7 -19 -25 -16 -14 3 -21 0 -19 -7 2 -6 13 -12 25 -14
28 -4 29 -38 2 -47 -11 -3 -25 -3 -30 0 -6 4 -17 2 -24 -4 -7 -6 -24 -10 -37
-10 -13 1 -43 -6 -67 -14 -23 -9 -44 -16 -47 -16 -3 -1 -20 -7 -39 -15 -37
-16 -51 -31 -36 -41 5 -3 10 -15 10 -26 0 -10 5 -19 11 -19 6 0 9 8 7 17 -4
15 2 18 30 19 32 1 33 -1 16 -13 -11 -7 -27 -20 -37 -28 -22 -19 -57 -19 -57
0 0 19 -16 19 -24 0 -3 -9 -18 -15 -39 -15 -18 0 -37 -4 -43 -9 -5 -5 -32 -19
-61 -30 -49 -19 -60 -20 -195 -9 -79 6 -146 16 -150 22 -4 6 -12 5 -23 -4 -15
-12 -19 -11 -34 8 -14 19 -26 22 -96 24 -44 1 -82 4 -85 8 -10 12 -38 -27 -29
-41 6 -11 14 -11 36 -3 29 11 53 -1 53 -24 0 -6 21 -13 46 -17 25 -3 61 -16
81 -27 29 -18 36 -19 44 -7 7 11 11 11 17 1 5 -6 19 -12 33 -11 56 2 175 -15
189 -26 8 -7 35 -16 60 -20 25 -4 52 -11 61 -16 8 -4 37 -10 64 -14 27 -3 50
-7 52 -8 1 -2 -4 -14 -11 -28 -7 -13 -11 -29 -9 -35 2 -7 -5 -14 -17 -17 -30
-8 -28 -57 3 -57 12 0 34 -7 50 -14 25 -14 27 -13 27 3 0 23 39 35 47 15 3 -8
2 -26 -1 -40 -5 -20 -4 -25 6 -21 8 3 24 -1 37 -8 22 -11 20 -13 -30 -21 -30
-4 -67 -9 -84 -11 -153 -12 -186 -17 -191 -24 -3 -5 4 -9 15 -9 11 0 22 -4 25
-9 3 -4 27 -11 54 -15 26 -3 57 -12 67 -20 11 -7 29 -16 40 -19 17 -4 16 -5
-5 -6 l-25 -2 25 -14 c14 -8 33 -14 42 -15 10 0 20 -11 24 -24 3 -15 14 -26
27 -28 18 -3 22 -9 19 -38 -1 -19 -10 -42 -19 -52 -10 -11 -13 -26 -9 -43 5
-21 3 -25 -14 -25 -11 0 -20 -3 -20 -8 0 -11 -49 -29 -97 -37 -31 -5 -43 -3
-43 6 0 15 -15 2 -15 -14 -1 -7 -7 -11 -15 -9 -7 2 -16 -2 -20 -9 -6 -9 -30
-9 -101 -1 -51 7 -95 9 -98 7 -2 -3 3 -5 13 -5 9 0 31 -8 49 -17 18 -9 36 -16
42 -14 30 8 98 -13 125 -39 17 -16 30 -27 30 -24 0 2 8 0 19 -5 24 -13 37 -61
19 -73 -8 -5 -4 -6 12 -3 19 5 32 0 50 -19 13 -15 31 -26 41 -26 10 0 21 -4
24 -10 3 -5 15 -10 27 -10 16 0 18 -3 9 -13 -7 -9 -8 -24 -1 -48 13 -44 13
-89 0 -89 -5 0 -10 -4 -10 -10 0 -7 268 -10 785 -10 l785 0 -2 2258 c-2 1241
-5 1994 -8 1672 l-5 -585 -50 -8 c-27 -5 -82 -17 -122 -28 -39 -10 -84 -19
-100 -19 -15 0 -49 -7 -75 -14 -41 -13 -46 -13 -41 0 3 9 -2 14 -15 14 -15 0
-19 -5 -15 -20 4 -15 0 -20 -14 -20 -11 0 -28 9 -38 20 -18 19 -17 20 6 21
l24 1 -24 7 c-14 4 -28 18 -33 33 -8 24 -5 32 32 66 46 42 63 92 54 158 -6 45
-9 51 -42 78 -19 17 -22 17 -16 3 3 -9 9 -17 13 -17 13 0 31 -49 31 -82 0 -43
-40 -119 -72 -137 -16 -9 -28 -19 -28 -23 0 -5 -5 -8 -11 -8 -7 0 -9 11 -6 28
6 28 -17 72 -30 59 -4 -4 -1 -13 5 -19 7 -7 12 -18 12 -25 0 -20 -26 -4 -39
25 -11 22 -10 28 5 39 10 7 21 13 26 13 4 0 8 5 8 11 0 6 -9 8 -20 4 -35 -11
-61 4 -59 33 4 47 0 58 -26 72 -31 17 -33 33 -2 26 12 -3 8 1 -10 9 -26 12
-34 24 -48 72 -9 32 -18 66 -21 76 -3 10 -16 25 -30 33 -13 9 -24 23 -24 30 0
8 -10 14 -22 13 -13 0 -17 -3 -10 -6 6 -2 12 -9 12 -14 0 -4 -7 -6 -15 -3 -8
4 -15 14 -15 23 0 9 -18 27 -40 41 -22 14 -40 28 -40 32 0 5 -7 8 -16 8 -11 0
-14 6 -9 20 4 11 2 20 -4 20 -6 0 -11 -7 -11 -15 0 -25 -19 -17 -51 20 -17 19
-38 35 -48 35 -30 1 -103 39 -98 52 2 7 -2 21 -11 30 -12 14 -12 20 -2 33 10
12 10 15 -3 15 -9 0 -23 -10 -32 -22 l-16 -23 -16 23 c-13 18 -25 22 -74 22
-32 0 -61 -5 -65 -11 -4 -7 -23 -9 -53 -4 -25 3 -68 8 -96 10 -70 5 -115 15
-115 24 0 28 -149 39 -158 11 -2 -5 -11 -19 -20 -30 -15 -18 -22 -19 -52 -10
-58 17 -125 12 -164 -11 -22 -13 -36 -16 -36 -9 0 7 -5 6 -15 -4 -8 -8 -25
-18 -37 -22 -12 -4 -29 -13 -37 -21 -11 -12 -28 -14 -68 -9 -45 5 -56 3 -74
-15 -28 -28 -16 -36 17 -10 19 15 34 19 53 14 35 -8 36 -10 20 -30 -11 -15
-11 -16 1 -5 16 14 40 16 40 4 0 -15 -70 -82 -85 -82 -7 0 -16 -9 -20 -20 -6
-18 -8 -19 -35 -5 -24 12 -37 13 -95 0 -36 -7 -83 -12 -103 -9 -27 3 -31 2
-13 -4 l24 -8 -29 -18 c-32 -21 -73 -66 -74 -81 0 -6 -9 -16 -20 -23 -17 -10
-23 -10 -34 0 -19 20 4 65 49 100 21 15 35 28 31 28 -9 0 -70 -43 -74 -53 -2
-4 -9 -13 -16 -20 -7 -6 -15 -20 -19 -29 -3 -10 -19 -20 -34 -23 -64 -14 -129
-68 -151 -126 -32 -80 -33 -94 -12 -135 10 -21 19 -35 20 -30 0 4 11 1 25 -8
31 -20 31 -19 -1 38 -20 36 -25 56 -21 83 9 51 50 91 104 99 54 8 63 1 34 -30
-29 -31 -37 -86 -18 -125 13 -27 14 -33 1 -45 -8 -8 -14 -19 -14 -26 0 -6 -11
-15 -24 -21 -18 -8 -30 -7 -54 5 -22 11 -32 12 -34 4 -3 -8 -14 -5 -34 8 -89
63 -205 52 -287 -26 -42 -39 -48 -51 -54 -97 -4 -42 -1 -60 17 -94 12 -24 29
-49 38 -57 11 -8 13 -15 6 -18 -35 -15 -47 -32 -40 -58 5 -21 21 -34 71 -57
36 -16 65 -31 65 -33 0 -7 -51 7 -56 15 -9 15 -44 10 -44 -7 0 -22 -40 -14
-54 10 -6 11 -23 38 -38 59 l-28 40 0 679 0 678 -35 0 -35 0 -2 -1661z m1688
1330 c41 -25 43 -33 5 -27 -21 3 -28 0 -27 -11 1 -9 5 -19 9 -22 5 -3 -7 -12
-25 -19 -18 -7 -39 -20 -46 -29 -11 -14 -14 -14 -22 -1 -19 29 -12 91 13 111
29 24 52 24 93 -2z m418 -45 c9 -8 16 -24 16 -35 0 -15 -7 -19 -35 -19 -32 0
-40 7 -36 32 0 4 -8 10 -19 13 -11 4 -18 11 -15 16 10 15 72 10 89 -7z m-654
-4 c14 -4 20 -8 13 -9 -7 -1 -10 -7 -7 -15 8 -21 -5 -24 -66 -16 -30 4 -59 4
-64 -1 -18 -16 -27 -9 -16 11 8 15 21 20 51 20 24 0 38 4 34 10 -7 12 19 12
55 0z m83 -36 c24 -32 20 -36 -26 -23 -40 11 -40 10 -31 33 9 24 37 19 57 -10z
m657 14 c0 -22 -17 -41 -29 -34 -15 10 -14 33 2 39 21 9 27 8 27 -5z m-931
-44 c-13 -16 -49 -19 -49 -4 0 12 41 30 53 23 4 -3 3 -11 -4 -19z m384 -14
c-9 -16 -21 -30 -26 -30 -9 0 -1 17 21 43 23 26 25 21 5 -13z m-128 -10 c17
-11 26 -20 22 -20 -11 0 -67 29 -67 35 0 10 16 4 45 -15z m-93 4 c4 -3 3 -15
-3 -26 -10 -19 -12 -20 -21 -4 -5 9 -14 14 -19 11 -5 -4 -7 -11 -4 -16 4 -5
-3 -9 -14 -9 -12 0 -21 7 -21 15 0 8 -7 15 -15 15 -8 0 -14 -3 -14 -7 4 -28
-4 -33 -46 -31 -36 1 -43 4 -34 15 6 7 26 13 43 13 22 0 27 3 17 9 -11 7 -10
10 5 13 28 7 116 8 126 2z m68 -24 c0 -9 -47 -19 -55 -12 -3 3 0 11 5 18 11
12 50 8 50 -6z m835 -20 c17 -11 27 -20 24 -20 -11 0 -79 30 -79 35 0 11 27 4
55 -15z m-812 -7 c-7 -2 -19 -2 -25 0 -7 3 -2 5 12 5 14 0 19 -2 13 -5z m-103
-15 c0 -17 -35 -26 -53 -13 -25 18 -21 23 18 22 19 -1 35 -4 35 -9z m-100 -45
c1 -17 1 -17 14 0 14 18 36 23 36 8 0 -22 -32 -32 -96 -29 -40 2 -69 -1 -71
-8 -2 -6 10 -8 32 -6 19 2 42 1 52 -2 14 -6 11 -12 -18 -36 -19 -16 -40 -29
-47 -30 -16 0 -32 42 -32 86 l0 34 65 0 c55 0 65 -3 65 -17z m-160 -26 c0 -8
-3 -17 -7 -20 -9 -9 -34 13 -27 24 8 14 34 11 34 -4z m-95 -8 c12 -18 -3 -22
-20 -5 -14 14 -14 16 -1 16 8 0 18 -5 21 -11z m-92 -21 c30 -15 34 -26 12 -35
-9 -3 -24 2 -35 12 -11 10 -26 15 -34 12 -9 -4 -18 -2 -21 3 -5 8 12 16 41 19
5 0 22 -5 37 -11z m-103 -27 c0 -12 -20 -25 -27 -18 -7 7 6 27 18 27 5 0 9 -4
9 -9z m1511 -14 c-10 -9 -11 -8 -5 6 3 10 9 15 12 12 3 -3 0 -11 -7 -18z
m-1441 -23 c0 -12 -4 -14 -12 -7 -7 6 -20 13 -28 16 -9 3 -3 6 13 6 19 1 27
-4 27 -15z m130 -9 c0 -8 -4 -15 -10 -15 -5 0 -10 7 -10 15 0 8 5 15 10 15 6
0 10 -7 10 -15z m-65 -35 c-5 -8 -11 -8 -17 -2 -6 6 -7 16 -3 22 5 8 11 8 17
2 6 -6 7 -16 3 -22z m-105 6 c-10 -8 -30 -11 -57 -9 -58 7 -44 23 20 23 44 0
49 -2 37 -14z m-222 -23 c-10 -2 -26 -2 -35 0 -10 3 -2 5 17 5 19 0 27 -2 18
-5z m277 -3 c3 -5 -1 -10 -9 -10 -9 0 -16 5 -16 10 0 6 4 10 9 10 6 0 13 -4
16 -10z m-179 -71 c10 -17 -13 -36 -27 -22 -12 12 -4 33 11 33 5 0 12 -5 16
-11z m-56 -23 c0 -2 3 -11 6 -20 5 -12 0 -16 -19 -16 -20 0 -24 4 -20 20 4 16
33 30 33 16z m80 -26 c-8 -5 -24 -9 -35 -9 -16 1 -16 2 5 9 35 11 48 11 30 0z
m5 -30 c-3 -5 -11 -10 -16 -10 -6 0 -7 5 -4 10 3 6 11 10 16 10 6 0 7 -4 4
-10z m-85 -15 c0 -8 -4 -15 -10 -15 -5 0 -10 -7 -10 -17 0 -9 -2 -14 -5 -11
-9 8 6 58 16 58 5 0 9 -7 9 -15z m1977 -11 c-3 -3 -12 -4 -19 -1 -8 3 -5 6 6
6 11 1 17 -2 13 -5z m-2180 -56 c-3 -8 -6 -5 -6 6 -1 11 2 17 5 13 3 -3 4 -12
1 -19z m-99 -37 c20 -10 45 -28 55 -39 18 -20 18 -21 -3 -42 -27 -27 -96 -33
-92 -7 2 9 -2 17 -8 17 -5 0 -10 -13 -10 -29 0 -31 -47 -91 -72 -91 -24 0 -38
-23 -38 -64 0 -38 0 -39 -20 -21 -11 10 -20 26 -20 36 0 11 -5 16 -13 13 -34
-13 -49 97 -19 137 10 13 21 32 25 41 8 22 103 67 145 67 18 1 49 -8 70 -18z
m2352 15 c0 -3 -4 -8 -10 -11 -5 -3 -10 -1 -10 4 0 6 5 11 10 11 6 0 10 -2 10
-4z m-2075 -26 c-3 -5 -11 -10 -16 -10 -6 0 -7 5 -4 10 3 6 11 10 16 10 6 0 7
-4 4 -10z m-134 -20 c5 0 9 -5 9 -11 0 -15 -43 -7 -48 10 -3 10 0 12 12 8 10
-4 22 -7 27 -7z m2217 -24 c3 -12 -1 -17 -10 -14 -7 3 -15 13 -16 22 -3 12 1
17 10 14 7 -3 15 -13 16 -22z m-38 -6 c0 -5 -7 -10 -16 -10 -8 0 -12 5 -9 10
3 6 10 10 16 10 5 0 9 -4 9 -10z m-2135 -10 c-28 -12 -47 -12 -40 0 3 6 18 10
33 9 24 0 25 -1 7 -9z m2268 -69 c3 -13 -3 -22 -22 -30 -23 -10 -24 -10 -8 3
12 10 14 15 6 18 -7 2 -9 10 -5 16 11 18 23 15 29 -7z m-1616 -7 c-3 -3 -12
-4 -19 -1 -8 3 -5 6 6 6 11 1 17 -2 13 -5z m-847 -30 c0 -21 -4 -25 -20 -21
-11 3 -20 1 -20 -4 0 -5 5 -9 11 -9 5 0 7 -5 4 -10 -10 -16 -25 -1 -25 25 0
21 21 44 43 45 4 0 7 -12 7 -26z m681 -12 c18 -18 41 -32 51 -32 10 0 22 -10
27 -22 6 -17 9 -18 14 -6 9 26 122 13 163 -18 27 -21 41 -24 92 -21 33 1 66 8
74 15 11 9 22 6 52 -14 21 -14 44 -23 53 -20 36 14 78 -5 105 -48 22 -34 36
-45 70 -53 50 -13 178 -62 163 -63 -5 0 5 -9 23 -20 24 -15 32 -27 32 -49 0
-17 5 -33 11 -36 6 -4 8 -13 5 -21 -3 -8 3 -23 14 -34 11 -11 20 -26 20 -32 0
-7 23 -26 50 -43 29 -18 51 -40 55 -54 6 -24 2 -29 -39 -53 -11 -6 -37 -27
-59 -47 -21 -20 -45 -39 -52 -43 -7 -4 -18 -21 -25 -38 -9 -22 -19 -30 -37
-30 -13 0 -26 -6 -29 -14 -4 -12 -12 -13 -32 -5 -36 14 -72 3 -72 -21 0 -13
-5 -18 -15 -14 -10 4 -15 0 -15 -14 0 -11 6 -23 13 -25 6 -3 -13 -6 -44 -6
-41 -1 -60 4 -70 16 -14 17 -20 63 -8 63 16 0 16 43 1 71 -17 28 -42 40 -42
19 0 -16 -48 22 -55 43 -4 9 -23 26 -43 37 -20 11 -55 31 -77 45 -22 14 -51
30 -65 37 -14 7 -31 18 -38 25 -50 48 -316 120 -406 110 -117 -13 -254 -71
-365 -156 -40 -31 -83 -63 -94 -71 -11 -8 1 16 27 53 25 38 46 71 46 74 0 3
11 21 25 39 14 18 25 37 25 43 0 5 8 24 17 43 32 64 33 66 20 72 -9 3 -8 7 2
14 8 6 15 22 17 37 2 15 12 37 23 49 12 12 21 26 21 32 0 5 -7 0 -15 -10 -13
-17 -15 -17 -15 -3 0 9 14 32 30 51 19 21 28 40 24 50 -5 12 0 16 20 16 24 0
27 4 25 28 -1 12 44 19 77 12 26 -6 31 -4 27 9 -2 11 10 22 39 35 93 42 114
42 159 -2z m69 18 c6 -11 7 -20 2 -20 -10 0 -32 21 -32 32 0 16 19 8 30 -12z
m70 -10 c18 -15 20 -18 6 -13 -16 5 -18 3 -13 -12 6 -15 5 -16 -8 -5 -9 7 -13
15 -10 18 3 3 0 11 -6 19 -17 20 2 15 31 -7z m50 -1 c0 -5 -4 -9 -10 -9 -5 0
-10 7 -10 16 0 8 5 12 10 9 6 -3 10 -10 10 -16z m-698 -21 c-7 -7 -12 -8 -12
-2 0 6 3 14 7 17 3 4 9 5 12 2 2 -3 -1 -11 -7 -17z m906 -13 c22 -20 -32 -57
-77 -53 -42 4 -52 24 -17 38 37 14 32 20 -6 10 l-33 -9 23 19 c25 21 86 18
110 -5z m177 -29 l25 -37 -22 6 c-60 17 -107 80 -54 73 16 -3 35 -18 51 -42z
m1185 34 c8 -5 11 -12 7 -16 -4 -4 -15 0 -24 9 -18 18 -8 23 17 7z m-1093 -35
c13 22 27 16 18 -8 -7 -16 -42 -30 -49 -19 -2 4 -1 21 2 37 l6 30 6 -30 c5
-28 6 -29 17 -10z m-174 -6 c3 -13 1 -19 -6 -16 -15 5 -22 37 -9 37 5 0 12 -9
15 -21z m227 6 c-7 -9 -15 -13 -17 -11 -7 7 7 26 19 26 6 0 6 -6 -2 -15z
m-1468 -37 c-10 -22 -11 -21 -11 12 -1 26 2 31 11 22 8 -8 8 -17 0 -34z m1530
-8 c-13 -10 -30 -16 -39 -13 -12 5 -9 9 13 19 42 18 52 16 26 -6z m-36 -26
c19 -9 34 -20 34 -25 0 -5 7 -9 14 -9 8 0 27 -11 42 -25 l27 -25 -54 0 c-50 0
-56 3 -81 34 -26 32 -37 66 -22 66 3 0 21 -7 40 -16z m-1592 -16 l17 -23 -6
23 c-4 14 -2 22 5 22 8 0 10 -10 7 -27 -3 -18 0 -34 10 -45 15 -16 15 -18 0
-18 -21 0 -76 32 -82 49 -5 14 11 41 25 41 4 0 15 -10 24 -22z m1542 -19 c14
-22 23 -43 20 -46 -9 -10 -73 45 -79 67 -10 37 31 23 59 -21z m147 -76 c-7 -2
-19 -2 -25 0 -7 3 -2 5 12 5 14 0 19 -2 13 -5z m-1589 -29 c10 -25 1 -27 -19
-4 -15 17 -16 20 -3 20 9 0 19 -7 22 -16z m2591 -90 c-14 -20 -25 -45 -25 -55
0 -23 -16 -25 -24 -4 -3 9 1 18 9 21 8 4 15 11 15 18 0 16 29 56 40 56 5 0 -2
-16 -15 -36z m15 -105 c0 -5 -4 -9 -10 -9 -5 0 -10 -7 -10 -15 0 -9 6 -12 17
-8 13 5 15 2 11 -15 -4 -12 -2 -25 3 -28 5 -3 9 4 9 15 0 16 6 21 28 20 17 -1
20 -3 9 -6 -19 -5 -54 -63 -38 -63 5 0 13 -9 16 -20 6 -19 35 -29 35 -12 0 5
25 14 55 21 30 7 55 16 55 20 0 4 33 13 73 20 39 7 94 19 121 27 27 8 53 14
58 14 4 0 8 -416 8 -924 l0 -924 -67 -10 c-38 -6 -84 -11 -105 -11 -33 -1 -37
1 -43 31 -6 32 -18 64 -36 100 -5 10 -9 158 -10 330 -1 172 -5 324 -9 338 -5
16 -9 -36 -10 -135 -1 -285 -2 -297 -28 -323 -12 -12 -20 -27 -17 -32 4 -6 1
-10 -4 -10 -6 0 -11 -6 -11 -14 0 -7 -7 -19 -15 -26 -14 -11 -14 -9 0 16 8 16
15 41 15 56 0 15 4 49 10 75 5 26 14 120 19 208 7 123 6 175 -4 225 -7 36 -13
59 -14 53 -1 -7 -5 -13 -11 -13 -5 0 -7 7 -4 15 3 8 -1 24 -9 35 -13 19 -13
29 -1 78 7 31 13 83 14 115 0 31 7 100 15 153 14 83 14 99 2 113 -21 24 -47
109 -47 152 0 26 -8 47 -27 70 -22 25 -23 30 -7 21 41 -22 128 -162 120 -194
-2 -9 1 -19 7 -21 6 -2 16 -21 23 -43 l12 -39 3 50 c4 83 0 94 -48 143 -77 79
-83 87 -83 112 0 14 -9 36 -20 50 -11 14 -20 30 -20 37 0 6 -15 44 -34 85 -50
110 -52 116 -21 110 14 -2 25 -8 25 -13z m287 -21 c-3 -8 -6 -5 -6 6 -1 11 2
17 5 13 3 -3 4 -12 1 -19z m-2360 -4 c-3 -3 -12 -4 -19 -1 -8 3 -5 6 6 6 11 1
17 -2 13 -5z m-40 -10 c-3 -3 -12 -4 -19 -1 -8 3 -5 6 6 6 11 1 17 -2 13 -5z
m2453 -3 c0 -5 -12 -11 -27 -15 -16 -3 -38 -8 -50 -12 -13 -4 -23 -2 -23 4 0
5 21 14 48 20 26 5 48 10 50 11 1 0 2 -3 2 -8z m-2540 -11 c-34 -11 -60 -11
-35 0 11 5 29 8 40 8 16 0 15 -2 -5 -8z m2273 -50 c-3 -11 -9 -20 -14 -20 -14
0 -11 28 4 33 6 3 13 6 14 6 0 1 -1 -8 -4 -19z m-520 -103 c-4 -6 11 -7 38 -3
24 3 51 2 59 -4 12 -8 10 -10 -10 -11 -14 -1 -36 -3 -50 -5 -14 -2 -63 -7
-110 -12 -47 -4 -100 -15 -119 -25 -19 -9 -39 -17 -44 -17 -6 0 -21 -9 -33
-21 l-22 -21 2 26 c4 31 -1 26 56 62 45 28 100 40 192 40 27 0 44 -4 41 -9z
m-2396 -117 c2 -25 9 -49 16 -55 9 -6 15 -34 16 -70 3 -77 6 -97 25 -169 9
-33 14 -62 11 -64 -3 -3 0 -11 6 -18 6 -8 9 -20 6 -28 -3 -8 -1 -16 4 -18 6
-2 10 -37 11 -78 0 -41 4 -77 9 -81 5 -3 9 -63 10 -135 1 -145 32 -436 54
-504 8 -25 17 -67 21 -95 3 -27 17 -81 30 -118 13 -37 21 -74 17 -82 -3 -8 0
-15 7 -15 7 0 10 -6 7 -13 -3 -7 4 -60 14 -118 11 -57 21 -131 24 -164 3 -33
9 -87 14 -120 4 -33 6 -65 4 -71 -2 -7 8 -21 23 -33 26 -20 26 -21 5 -21 -27
0 -114 -36 -156 -65 -16 -11 -55 -38 -85 -60 -30 -23 -70 -46 -87 -52 l-33
-11 0 1171 c1 882 3 1167 12 1152 6 -10 13 -40 15 -65z m2467 37 c23 -17 35
-110 16 -122 -7 -4 -42 -9 -79 -11 -135 -7 -206 -15 -215 -25 -15 -14 -116
-12 -116 3 0 17 41 58 59 58 22 1 49 23 44 36 -2 6 13 22 34 35 30 19 57 25
133 30 52 3 98 6 101 7 3 1 13 -4 23 -11z m-909 -86 c-6 -5 -25 10 -25 20 0 5
6 4 14 -3 8 -7 12 -15 11 -17z m-818 -198 c15 -27 6 -83 -13 -83 -7 0 -18 8
-23 19 -14 26 -25 97 -17 117 5 14 9 13 24 -7 9 -13 23 -34 29 -46z m953 58
c0 -5 -6 -14 -14 -20 -8 -6 -16 -24 -19 -39 -3 -15 -12 -45 -20 -66 l-14 -39
-6 34 c-3 19 -9 48 -12 64 -9 40 18 65 78 74 4 0 7 -3 7 -8z m-1075 -187 c4
-63 5 -118 2 -121 -12 -11 -67 103 -67 140 0 35 32 97 51 97 3 0 10 -52 14
-116z m1545 79 c0 -33 -2 -36 -15 -23 -8 9 -12 24 -9 38 10 35 24 26 24 -15z
m-1970 -59 c0 -8 -4 -12 -10 -9 -5 3 -10 10 -10 16 0 5 5 9 10 9 6 0 10 -7 10
-16z m2404 -517 c32 -15 64 -27 71 -27 6 0 22 -9 35 -20 13 -11 40 -27 61 -37
22 -9 39 -23 39 -30 0 -7 5 -13 10 -13 6 0 10 -7 10 -16 0 -9 9 -18 19 -21 49
-13 40 -190 -10 -221 l-22 -14 7 89 c8 103 1 127 -48 159 -46 29 -227 114
-245 114 -9 0 -103 40 -111 47 -2 2 2 8 10 13 25 16 114 4 174 -23z m305 -509
c-14 -25 -39 -53 -39 -43 0 9 40 65 46 65 3 0 -1 -10 -7 -22z m-59 -88 c-11
-16 -26 -33 -32 -36 -7 -4 1 9 16 29 34 44 46 50 16 7z m-1144 -65 c-1 -14 -4
-25 -8 -25 -5 0 -8 2 -8 5 0 3 0 14 0 25 0 11 4 20 9 20 4 0 8 -11 7 -25z
m1084 -18 c0 -2 -10 -12 -22 -23 l-23 -19 19 23 c18 21 26 27 26 19z m-91
-163 c2 -2 -8 -4 -22 -4 -18 0 -27 5 -27 15 0 13 4 14 23 4 12 -6 24 -13 26
-15z m134 9 c-24 -2 -62 -2 -85 0 -24 2 -5 4 42 4 47 0 66 -2 43 -4z m137 -8
c7 -8 18 -15 25 -15 6 0 17 -11 25 -24 14 -26 26 -31 107 -42 32 -4 58 -2 65
4 20 15 98 26 98 13 0 -6 -8 -11 -19 -11 -10 0 -35 -7 -54 -15 -59 -24 -187
-13 -187 16 0 5 -5 9 -11 9 -6 0 -25 12 -43 27 -17 14 -44 32 -61 39 l-30 13
36 1 c21 0 42 -7 49 -15z m-3510 -305 c-22 -40 -40 -82 -40 -94 -1 -11 -7 -48
-14 -81 -15 -67 -21 -31 -7 42 5 24 4 44 -1 45 -5 2 3 19 17 38 14 18 25 38
25 44 0 12 52 88 57 83 2 -2 -15 -37 -37 -77z m1337 -177 c-3 -10 -5 -2 -5 17
0 19 2 27 5 18 2 -10 2 -26 0 -35z m63 -258 c0 -5 -5 -3 -10 5 -5 8 -10 20
-10 25 0 6 5 3 10 -5 5 -8 10 -19 10 -25z m-1493 -37 c-3 -7 -5 -2 -5 12 0 14
2 19 5 13 2 -7 2 -19 0 -25z"/>
<path d="M5330 4170 c-12 -8 -12 -10 5 -9 11 0 29 4 40 9 18 8 18 9 -5 9 -14
0 -32 -4 -40 -9z"/>
<path d="M4126 4133 c-6 -14 -5 -15 5 -6 7 7 10 15 7 18 -3 3 -9 -2 -12 -12z"/>
<path d="M5502 4108 c7 -15 15 -23 17 -17 2 6 -4 18 -13 27 -15 15 -15 15 -4
-10z"/>
<path d="M4255 4090 c-13 -5 -14 -9 -5 -9 8 0 24 4 35 9 13 5 14 9 5 9 -8 0
-24 -4 -35 -9z"/>
<path d="M4220 3990 c-14 -10 -22 -21 -19 -24 3 -3 16 5 29 19 28 30 24 32
-10 5z"/>
<path d="M5575 3930 c3 -5 11 -10 16 -10 6 0 7 5 4 10 -3 6 -11 10 -16 10 -6
0 -7 -4 -4 -10z"/>
<path d="M2155 3757 c-11 -5 -31 -27 -44 -47 -23 -37 -69 -59 -92 -44 -5 3
-18 -5 -28 -17 -25 -31 -48 -19 -56 28 -9 52 -16 71 -22 56 -2 -7 -11 -9 -19
-6 -8 3 -17 -4 -22 -17 -6 -16 -18 -23 -41 -25 -18 -2 -39 -11 -46 -21 -10
-12 -17 -15 -22 -9 -5 6 -25 20 -45 32 -35 21 -37 21 -53 3 -12 -14 -23 -16
-49 -10 -19 4 -38 10 -44 14 -5 3 -25 -5 -43 -17 -19 -13 -49 -29 -66 -36 -24
-10 -33 -20 -33 -37 0 -26 -18 -31 -49 -15 -14 8 -17 6 -17 -12 1 -20 -4 -21
-71 -21 -72 0 -73 0 -88 -33 -9 -18 -20 -33 -24 -33 -5 0 -19 -16 -32 -35 -16
-24 -35 -37 -56 -41 -36 -7 -35 -3 -42 -147 -1 -20 -7 -31 -21 -34 -11 -3 -20
-11 -20 -18 0 -7 -4 -15 -8 -17 -12 -5 -62 -95 -62 -111 0 -8 -7 -29 -16 -48
-51 -111 -59 -123 -91 -133 -35 -12 -87 -53 -94 -74 -3 -8 -20 -14 -39 -15
-34 -2 -35 -1 -33 35 2 31 -1 37 -23 42 -29 8 -182 -20 -202 -36 -6 -6 -12 -7
-12 -3 0 4 -7 2 -16 -6 -9 -7 -23 -14 -32 -15 -102 -14 -251 -90 -344 -177
l-38 -35 0 -1295 0 -1296 128 53 c70 29 186 82 257 118 72 36 185 89 253 118
68 29 149 70 181 90 58 38 121 117 121 152 0 20 -49 117 -111 218 -87 143
-128 287 -130 456 -1 64 -5 91 -11 80 -5 -9 -13 -16 -19 -16 -5 0 -21 -12 -34
-26 -22 -23 -25 -24 -31 -10 -9 22 2 244 18 366 6 52 11 132 10 178 -1 49 3
82 9 82 5 0 12 -7 15 -15 10 -24 24 -6 24 30 0 36 41 95 66 95 17 0 20 -115 3
-126 -14 -8 -29 14 -29 44 0 46 -18 19 -30 -45 -7 -38 -21 -92 -32 -122 -10
-30 -16 -56 -14 -58 2 -2 25 30 51 71 27 41 52 73 57 70 5 -3 20 -24 34 -46
25 -39 26 -55 7 -104 -14 -36 18 -2 41 44 37 74 45 132 49 364 3 119 8 221 11
226 3 6 11 45 17 88 6 44 16 86 23 94 19 23 34 79 41 150 7 72 37 164 64 196
17 21 124 89 186 118 27 13 41 13 105 0 85 -16 201 -19 216 -5 5 6 37 6 84 0
41 -5 82 -6 92 -3 19 6 62 -18 52 -29 -4 -3 6 -9 22 -13 16 -4 35 -16 44 -26
18 -22 198 -120 265 -144 27 -10 205 -6 219 4 19 14 97 12 121 -4 14 -9 33
-12 48 -9 14 4 30 1 38 -7 8 -7 26 -19 42 -25 35 -16 65 -66 72 -123 14 -107
36 -212 80 -375 8 -27 19 -133 25 -235 7 -105 19 -204 27 -230 15 -44 52 -114
58 -108 3 3 15 121 18 183 2 34 -1 40 -18 40 -24 0 -24 2 7 170 13 70 21 155
20 205 -2 189 -9 337 -17 363 -4 16 -3 32 4 41 6 7 8 15 5 19 -3 3 -8 31 -10
62 -3 31 -14 72 -25 91 -17 32 -18 37 -4 77 23 65 27 249 7 319 -14 46 -22 59
-44 67 -15 5 -36 7 -47 4 -23 -6 -41 27 -41 76 0 15 -9 36 -20 46 -11 10 -20
27 -20 37 0 14 -5 18 -18 14 -10 -4 -27 0 -38 8 -19 15 -19 15 1 30 20 14 20
15 -5 24 -14 6 -32 17 -39 26 -7 8 -28 18 -46 22 -20 3 -37 15 -45 30 -8 13
-19 24 -25 24 -7 0 -28 15 -48 33 -126 115 -146 128 -190 126 -12 -1 -31 -6
-42 -12z m657 -819 c-7 -7 -12 -8 -12 -2 0 6 3 14 7 17 3 4 9 5 12 2 2 -3 -1
-11 -7 -17z m-1859 -114 c-8 -20 -33 -17 -33 4 0 10 3 22 7 25 10 11 32 -13
26 -29z m-83 18 c0 -11 -22 -32 -32 -32 -5 0 -4 9 2 20 11 20 30 28 30 12z
m-81 -308 c-17 -21 -21 -11 -8 22 10 23 13 25 16 11 3 -10 -1 -25 -8 -33z
m106 13 c4 -12 1 -35 -4 -51 -6 -15 -11 -39 -11 -54 0 -29 -15 -60 -24 -51 -8
8 16 179 26 179 4 0 10 -10 13 -23z m-136 -183 c-6 -16 -13 -24 -16 -17 -5 13
16 58 23 50 3 -2 -1 -17 -7 -33z m-7 -56 c-7 -7 -12 -8 -12 -2 0 14 12 26 19
19 2 -3 -1 -11 -7 -17z m-166 -437 c14 -18 28 -107 19 -121 -11 -17 -23 -11
-29 15 -5 21 -12 25 -41 25 -25 0 -35 -5 -40 -21 -8 -26 -27 -20 -35 12 -28
104 -16 125 64 113 28 -3 56 -14 62 -23z m-291 -593 c-7 -25 -72 -128 -80
-128 -6 0 9 33 45 103 25 49 46 64 35 25z m385 -28 c0 -5 -5 -10 -11 -10 -5 0
-7 5 -4 10 3 6 8 10 11 10 2 0 4 -4 4 -10z"/>
<path d="M485 1850 c-11 -18 5 -30 41 -30 27 0 34 4 34 20 0 16 -7 20 -34 20
-19 0 -38 -4 -41 -10z"/>
<path d="M6350 3390 c0 -5 4 -10 9 -10 6 0 13 5 16 10 3 6 -1 10 -9 10 -9 0
-16 -4 -16 -10z"/>
<path d="M6081 3314 c0 -11 3 -14 6 -6 3 7 2 16 -1 19 -3 4 -6 -2 -5 -13z"/>
<path d="M1015 3270 c-3 -5 -1 -10 4 -10 6 0 11 5 11 10 0 6 -2 10 -4 10 -3 0
-8 -4 -11 -10z"/>
<path d="M3220 3191 c0 -6 4 -13 10 -16 6 -3 7 1 4 9 -7 18 -14 21 -14 7z"/>
<path d="M2835 2830 c-3 -5 -1 -10 4 -10 6 0 11 5 11 10 0 6 -2 10 -4 10 -3 0
-8 -4 -11 -10z"/>
<path d="M1578 2252 c-29 -26 -57 -53 -61 -60 -14 -22 -139 -78 -237 -107 -52
-15 -104 -34 -115 -41 -11 -7 -26 -35 -33 -61 -7 -26 -22 -68 -33 -92 -11 -24
-23 -72 -26 -106 l-6 -63 44 -28 c24 -15 61 -43 81 -63 51 -50 66 -61 78 -61
5 0 20 -10 31 -21 20 -20 25 -21 92 -10 39 7 87 20 106 30 61 31 149 71 158
71 26 0 86 105 94 164 8 63 -9 328 -22 341 -5 5 -9 23 -9 40 0 46 -31 98 -62
106 -24 6 -36 0 -80 -39z m-296 -494 c-7 -7 -12 -8 -12 -2 0 6 3 14 7 17 3 4
9 5 12 2 2 -3 -1 -11 -7 -17z"/>
<path d="M2072 2267 c-51 -29 -85 -119 -112 -301 -18 -119 -18 -135 -5 -194
21 -90 61 -143 137 -182 64 -33 81 -38 178 -62 113 -27 135 -18 275 116 l56
53 -3 99 c-2 96 9 144 32 144 13 0 13 29 0 66 -11 30 -61 54 -114 54 -14 0
-27 4 -31 9 -3 6 -49 24 -103 41 -100 33 -146 56 -190 96 -14 13 -29 24 -34
24 -5 0 -13 11 -18 25 -10 27 -32 31 -68 12z"/>
<path d="M4742 2168 c-7 -7 -12 -18 -12 -25 0 -7 -6 -13 -14 -13 -21 0 -46
-46 -49 -87 -2 -34 0 -37 25 -39 15 -2 30 0 32 4 7 11 37 164 33 168 -2 2 -9
-2 -15 -8z"/>
<path d="M3452 2130 c0 -14 2 -19 5 -12 2 6 2 18 0 25 -3 6 -5 1 -5 -13z"/>
<path d="M3484 2015 c13 -56 22 -72 56 -105 64 -59 144 -111 172 -110 7 1 -13
14 -44 31 -32 16 -58 34 -58 39 0 6 -6 10 -14 10 -17 0 -96 89 -96 109 0 9 -5
23 -11 31 -8 12 -9 11 -5 -5z"/>
<path d="M4590 1820 l-25 -21 28 12 c15 7 27 16 27 21 0 11 -1 10 -30 -12z"/>
<path d="M3764 1784 c45 -25 179 -45 311 -48 66 -2 93 -1 60 1 -106 6 -289 32
-330 47 -53 20 -78 19 -41 0z"/>
<path d="M4515 1790 c-3 -6 1 -7 9 -4 18 7 21 14 7 14 -6 0 -13 -4 -16 -10z"/>
<path d="M4460 1770 c-18 -12 -2 -12 25 0 13 6 15 9 5 9 -8 0 -22 -4 -30 -9z"/>
<path d="M2881 1735 c0 -16 6 -39 14 -49 19 -25 19 -5 0 44 l-13 35 -1 -30z"/>
<path d="M4353 1753 c9 -2 25 -2 35 0 9 3 1 5 -18 5 -19 0 -27 -2 -17 -5z"/>
<path d="M4308 1743 c7 -3 16 -2 19 1 4 3 -2 6 -13 5 -11 0 -14 -3 -6 -6z"/>
<path d="M4223 1733 c9 -2 25 -2 35 0 9 3 1 5 -18 5 -19 0 -27 -2 -17 -5z"/>
<path d="M4635 1730 c-14 -6 5 -9 58 -9 50 -1 76 3 72 9 -7 12 -102 12 -130 0z"/>
<path d="M4168 1695 c-2 -3 -31 -9 -64 -14 -32 -5 -77 -16 -99 -25 l-40 -17
35 4 c38 5 163 35 195 48 20 7 20 8 -1 8 -11 1 -23 -1 -26 -4z"/>
<path d="M665 1662 c-15 -20 -21 -47 -23 -109 -4 -74 -2 -82 17 -93 18 -9 22
-8 27 7 3 10 18 45 34 78 34 70 37 97 13 125 -23 27 -44 25 -68 -8z"/>
<path d="M2870 1554 c0 -2 14 -26 32 -54 22 -35 33 -67 36 -105 l4 -55 19 24
c25 32 25 111 0 152 -15 24 -28 33 -55 36 -20 2 -36 3 -36 2z"/>
<path d="M4832 1530 c-10 -16 -10 -20 2 -20 17 0 38 24 29 33 -10 11 -17 8
-31 -13z"/>
<path d="M4900 1525 c0 -8 9 -17 20 -20 11 -3 20 -10 20 -15 0 -14 27 -19 57
-10 18 5 21 9 9 9 -13 1 -17 6 -13 21 4 15 0 20 -16 21 -12 0 -34 2 -49 4 -19
2 -28 -1 -28 -10z"/>
<path d="M3838 1373 c-9 -10 -23 -32 -31 -49 -13 -26 -14 -34 -3 -49 18 -24
66 -13 66 15 0 24 38 28 46 5 5 -11 10 -12 26 -4 18 10 17 13 -27 55 -26 24
-50 44 -54 44 -5 0 -15 -8 -23 -17z"/>
<path d="M1360 1335 c-19 -14 -38 -32 -43 -40 -15 -28 9 -15 48 25 45 46 44
49 -5 15z"/>
<path d="M2786 804 c-4 -14 -5 -29 -2 -31 3 -3 8 7 12 21 3 15 4 29 1 32 -2 3
-8 -7 -11 -22z"/>
<path d="M965 475 c5 -33 7 -153 6 -267 -1 -181 0 -208 14 -208 12 0 15 17 16
98 0 63 3 90 9 77 6 -14 9 -4 9 37 1 31 -3 60 -9 63 -5 3 -10 30 -10 60 0 51
-25 184 -37 195 -3 3 -2 -22 2 -55z"/>
<path d="M1062 25 c0 -17 2 -22 5 -12 2 9 2 23 0 30 -3 6 -5 -1 -5 -18z"/>
</g>
</svg>
